<svg id="ic-instagram" xmlns="http://www.w3.org/2000/svg" viewBox="0 0 16 16">  <path id="Fill-1" d="M8.439.444c-2.173,0-2.445.009-3.3.048A5.871,5.871,0,0,0,3.2.864a3.921,3.921,0,0,0-1.417.923A3.921,3.921,0,0,0,.859,3.2,5.871,5.871,0,0,0,.487,5.146C.448,6,.439,6.272.439,8.444s.009,2.445.048,3.3a5.871,5.871,0,0,0,.372,1.942A3.921,3.921,0,0,0,1.782,15.1a3.922,3.922,0,0,0,1.417.923,5.872,5.872,0,0,0,1.942.372c.853.039,1.126.048,3.3.048s2.445-.009,3.3-.048a5.872,5.872,0,0,0,1.942-.372,4.091,4.091,0,0,0,2.34-2.34,5.872,5.872,0,0,0,.372-1.942c.039-.853.048-1.126.048-3.3S16.43,6,16.391,5.146A5.872,5.872,0,0,0,16.019,3.2,3.922,3.922,0,0,0,15.1,1.787,3.921,3.921,0,0,0,13.679.864,5.871,5.871,0,0,0,11.737.493C10.884.454,10.612.444,8.439.444Zm0,1.441c2.136,0,2.389.008,3.233.047a4.426,4.426,0,0,1,1.485.275,2.478,2.478,0,0,1,.92.6,2.478,2.478,0,0,1,.6.92,4.426,4.426,0,0,1,.275,1.485c.038.844.047,1.1.047,3.233s-.008,2.389-.047,3.233a4.426,4.426,0,0,1-.275,1.485,2.649,2.649,0,0,1-1.518,1.518,4.426,4.426,0,0,1-1.485.275c-.843.038-1.1.047-3.233.047s-2.389-.008-3.233-.047a4.426,4.426,0,0,1-1.485-.275,2.478,2.478,0,0,1-.92-.6,2.479,2.479,0,0,1-.6-.92,4.426,4.426,0,0,1-.275-1.485c-.038-.844-.047-1.1-.047-3.233s.008-2.389.047-3.233A4.426,4.426,0,0,1,2.2,3.726a2.478,2.478,0,0,1,.6-.92,2.478,2.478,0,0,1,.92-.6,4.426,4.426,0,0,1,1.485-.275c.844-.038,1.1-.047,3.233-.047Z" transform="translate(-0.439 -0.444)" fill="#327dc7"></path>  <path id="Fill-4" d="M8.439,10.935a2.49,2.49,0,1,1,2.49-2.49A2.49,2.49,0,0,1,8.439,10.935Zm0-6.327a3.837,3.837,0,1,0,3.836,3.837A3.836,3.836,0,0,0,8.439,4.608Z" transform="translate(-0.439 -0.444)" fill="#327dc7"></path>  <path id="Fill-5" d="M14.593,4.434a1.027,1.027,0,1,1-1.027-1.027,1.027,1.027,0,0,1,1.027,1.027" transform="translate(-1.336 -0.664)" fill="#327dc7"></path></svg>