<svg xmlns="http://www.w3.org/2000/svg" viewBox="0 0 16 13.333">  <path id="ic-twitter" d="M16,1.578a6.437,6.437,0,0,1-1.885.53A3.363,3.363,0,0,0,15.558.246a6.476,6.476,0,0,1-2.084.817A3.241,3.241,0,0,0,11.077,0,3.325,3.325,0,0,0,7.795,3.366a3.461,3.461,0,0,0,.085.767A9.245,9.245,0,0,1,1.114.616,3.426,3.426,0,0,0,2.13,5.11,3.208,3.208,0,0,1,.643,4.689c0,.014,0,.028,0,.042a3.348,3.348,0,0,0,2.633,3.3,3.211,3.211,0,0,1-1.482.058A3.3,3.3,0,0,0,4.86,10.427,6.5,6.5,0,0,1,0,11.821a9.125,9.125,0,0,0,5.032,1.512,9.4,9.4,0,0,0,9.34-9.577q0-.219-.009-.435A6.768,6.768,0,0,0,16,1.578" fill="#327dc7"></path></svg>