<svg viewBox="0 0 34 24" version="1.1" xmlns="http://www.w3.org/2000/svg" xmlns:xlink="http://www.w3.org/1999/xlink">    <g id="Page-2" stroke="none" stroke-width="1" fill="none" fill-rule="evenodd">        <g id="ic-youtube" fill="#333">            <path d="M33.2897959,3.74754531 C34.0001116,6.42129884 34.0001116,11.9999442 34.0001116,11.9999442 C34.0001116,11.9999442 34.0001116,17.5785895 33.2897959,20.2520608 C32.8988143,21.7272255 31.7465803,22.8891257 30.2836881,23.2833873 C27.6321784,23.9999442 17.0001116,23.9999442 17.0001116,23.9999442 C17.0001116,23.9999442 6.36804485,23.9999442 3.71653519,23.2833873 C2.25364296,22.8891257 1.10140892,21.7272255 0.71042739,20.2520608 C0.000111627907,17.5785895 0.000111627907,11.9999442 0.000111627907,11.9999442 C0.000111627907,11.9999442 0.000111627907,6.42129884 0.71042739,3.74754531 C1.10140892,2.27238069 2.25364296,1.11076262 3.71653519,0.7165011 C6.36804485,-5.58139532e-05 17.0001116,-5.58139532e-05 17.0001116,-5.58139532e-05 C17.0001116,-5.58139532e-05 27.6321784,-5.58139532e-05 30.2836881,0.7165011 C31.7465803,1.11076262 32.8988143,2.27238069 33.2897959,3.74754531 Z M13.6000836,17.1428134 L22.4334115,11.999916 L13.6000836,6.8570185 L13.6000836,17.1428134 Z" id="Combined-Shape"></path>        </g>    </g></svg>