<svg xmlns="http://www.w3.org/2000/svg" xmlns:xlink="http://www.w3.org/1999/xlink" width="503" height="504" viewBox="0 0 503 504">
  <defs>
    <clipPath id="clip-path">
      <rect id="Rectangle_5" data-name="Rectangle 5" width="841.89" height="595.28" fill="none"/>
    </clipPath>
    <clipPath id="clip-Logo-MIKE">
      <rect width="503" height="504"/>
    </clipPath>
  </defs>
  <g id="Logo-MIKE" clip-path="url(#clip-Logo-MIKE)">
    <rect width="503" height="504" fill="rgba(255,255,255,0)"/>
    <path id="Path_1" data-name="Path 1" d="M393.734,497.559a11.293,11.293,0,0,0-4.528,1.08,9.675,9.675,0,0,0-2.139-2.416,7.6,7.6,0,0,0-2.695-1.255,10.373,10.373,0,0,0-1.452-.19,8.426,8.426,0,0,0-4.953,1.024,9.976,9.976,0,0,0-3.488,5.839,9.128,9.128,0,0,0,.129,3.217,4.384,4.384,0,0,0,1.128,2.2,2.8,2.8,0,0,0-1.557.973,3.92,3.92,0,0,0-1.37,2.2,3.505,3.505,0,0,0,.009,2.235c.309.652-.156.892.487,1.414a5.27,5.27,0,0,0-2.984,1.812,4.7,4.7,0,0,0-.963,3.266,8.6,8.6,0,0,0,2.7,5.4,18.644,18.644,0,0,0,7.633,3.461,10.085,10.085,0,0,0,3.234.071,14.816,14.816,0,0,0,4.228-1.227c1.907-.885,3.047-3.248,3.421-5.256a4.8,4.8,0,0,0-1.189-4.144,9.949,9.949,0,0,0-6.161-3.332l-.3-.061a11.875,11.875,0,0,1-2.518-.523c-.787-.491-1.635-.95-1.521-1.577.067-.373.144-.205.31-.431a1.448,1.448,0,0,1,.712-.569c.214,0,.042.055.789.409a3.1,3.1,0,0,0,1.282.275,8.745,8.745,0,0,0,.946.139,6.861,6.861,0,0,0,4.561-1.168,7.143,7.143,0,0,0,3.043-4.848,5.275,5.275,0,0,0,.068-2.32,4.948,4.948,0,0,0-.385-1.639,5.439,5.439,0,0,1,2.233.26,10.438,10.438,0,0,1,2.382.666l2.086-4.406a7.809,7.809,0,0,0-3.174-.573m-13.253,20.168a4.607,4.607,0,0,0,.83.215c.623.135,1.161.252,1.609.383a2.8,2.8,0,0,1,1.548.861,1.442,1.442,0,0,1,.235,1.426,1.894,1.894,0,0,1-1.425,1.273c-.129.049-.246.1-.358.131a3.377,3.377,0,0,1-2.113.057,8.891,8.891,0,0,1-4.306-1.781,1.763,1.763,0,0,1-.822-1.658c.063-.506-.108-.424.347-.858a2.393,2.393,0,0,1,1.629-.914c1.107-.152,2,.639,2.826.865m5.651-13.9c-.126,1.266-.775,1.541-1.521,2.172a2.523,2.523,0,0,1-1.691.719c-.129.005-.264.009-.41.009a2.928,2.928,0,0,1-2.546-1.683,3.13,3.13,0,0,1-.226-2.541,3.521,3.521,0,0,1,1.333-2.055,2.81,2.81,0,0,1,1.849-.605,5.767,5.767,0,0,1,1.183.125c1.2.24,1.394.638,1.851,1.515a3.413,3.413,0,0,1,.178,2.344" transform="translate(-167 -53.999)" fill="#fff"/>
    <path id="Path_2" data-name="Path 2" d="M271.6,413.893l-4.434-9.086-11.858-3.1,8.361-4.078-3.334-6.834-22.129,10.789,3.335,6.838,5.405-2.635,5.424,1.729-6.831,9.1,4.11,8.422,9.673-15.144Z" transform="translate(-167 -53.999)" fill="#fff"/>
    <path id="Path_3" data-name="Path 3" d="M276.508,432.8a5.851,5.851,0,0,0-1.163-4.607,7.6,7.6,0,0,0-2.669-2.473,9.513,9.513,0,0,0-3.738-.914l2.374-1.662-3.65-5.217-14.608,10.228,3.921,5.6,7.015-4.91a5.481,5.481,0,0,1,3.209-1.3,2.47,2.47,0,0,1,1.923,1.11,2.2,2.2,0,0,1,.431,1.834,3.583,3.583,0,0,1-1.589,1.869l-8.035,5.625,3.941,5.625,9.286-6.5q2.892-2.028,3.352-4.3" transform="translate(-167 -53.999)" fill="#fff"/>
    <path id="Path_4" data-name="Path 4" d="M287.912,442.671a10.359,10.359,0,0,0-6.813-3.623l-.2-.014a8.931,8.931,0,0,0-6.8,2.574,8.759,8.759,0,0,0-2.961,7.215,12.221,12.221,0,0,0,9.955,10.285q.131.012.261.018a9.716,9.716,0,0,0,9.8-8.416q.406-4.119-3.248-8.039m-2.583,5.787a5.247,5.247,0,0,1-1.871,3.051,7.155,7.155,0,0,1-2.359,1.574,3.139,3.139,0,0,1-.931.2,3.152,3.152,0,0,1-3.294-3.56,5.342,5.342,0,0,1,1.919-3.112,6.531,6.531,0,0,1,2.306-1.494,3.29,3.29,0,0,1,.918-.179,3.1,3.1,0,0,1,2.526,1.023,2.992,2.992,0,0,1,.786,2.5" transform="translate(-167 -53.999)" fill="#fff"/>
    <path id="Path_5" data-name="Path 5" d="M315.232,467.122l-9.3,6.926,4.148-11.1-4.79-3.879-9.888,6.451,4.838-10.541-5.141-4.16-6.081,18.022,4.752,3.847,9.468-6.14-3.95,10.611,4.724,3.822,16.328-9.724Z" transform="translate(-167 -53.999)" fill="#fff"/>
    <rect id="Rectangle_1" data-name="Rectangle 1" width="24.621" height="6.856" transform="translate(146.355 432.773) rotate(-60.003)" fill="#fff"/>
    <path id="Path_6" data-name="Path 6" d="M340.984,480.739a13.948,13.948,0,0,0-2.837-.988,8.758,8.758,0,0,0-10.247,5.207,9.553,9.553,0,0,0-.951,5.2,8.169,8.169,0,0,0,1.707,4.3,12.851,12.851,0,0,0,4.632,3.26,16.487,16.487,0,0,0,4.859,1.545,7.378,7.378,0,0,0,1.313.048,9.61,9.61,0,0,0,5-1.921l-5.839-3.409c-.167.086-.327.161-.478.225a3.753,3.753,0,0,1-1.081.293,3.865,3.865,0,0,1-1.946-.353A3.23,3.23,0,0,1,333.266,492a4.388,4.388,0,0,1,.233-2.6l4.648,2.17,7.768,3.621.325-.7a12.269,12.269,0,0,0,1.369-5.678,7.762,7.762,0,0,0-1.641-4.466,13.1,13.1,0,0,0-4.984-3.61m.016,8.553-2.853-1.33-3.251-1.518a4.7,4.7,0,0,1,1.729-1.843,3.1,3.1,0,0,1,2.909-.071,3.076,3.076,0,0,1,1.7,1.741,4.589,4.589,0,0,1-.232,3.021" transform="translate(-167 -53.999)" fill="#fff"/>
    <path id="Path_7" data-name="Path 7" d="M367.413,484.079l-2.776,8.064a6.646,6.646,0,0,0-1.661-2.275,7.536,7.536,0,0,0-2.567-1.453,7.821,7.821,0,0,0-.9-.258,6.866,6.866,0,0,0-4.966.728q-2.781,1.527-4.219,5.721a11.549,11.549,0,0,0-.377,6.99,6.374,6.374,0,0,0,4.368,4.436,7.04,7.04,0,0,0,3.36.341,6.437,6.437,0,0,0,1.834-.646c.383-.193.791-.428,1.225-.7l-.859,2.494,6.051,2.082,8.012-23.277ZM362.361,498.9a5.137,5.137,0,0,1-1.912,2.873,2.99,2.99,0,0,1-.94.371,2.762,2.762,0,0,1-1.455-.115,2.571,2.571,0,0,1-1.617-1.631,5.033,5.033,0,0,1,.254-3.295,5.318,5.318,0,0,1,1.847-2.881,2.854,2.854,0,0,1,.971-.388,2.445,2.445,0,0,1,1.243.1,2.842,2.842,0,0,1,1.789,1.707,4.7,4.7,0,0,1-.18,3.258" transform="translate(-167 -53.999)" fill="#fff"/>
    <path id="Path_8" data-name="Path 8" d="M413.223,498.393a13.165,13.165,0,0,0-6-1.373h-.008a10.224,10.224,0,0,0-7.479,2.332,8.976,8.976,0,0,0-2.91,6.666,9.611,9.611,0,0,0,1.154,5.156,8.174,8.174,0,0,0,3.253,3.291,12.837,12.837,0,0,0,5.539,1.194l.443.009a13.03,13.03,0,0,0,5.858-.955,9.643,9.643,0,0,0,3.859-3.726l-6.71-.854a4.306,4.306,0,0,1-1.23,1.08,3.823,3.823,0,0,1-1.777.442l-.154,0a3.246,3.246,0,0,1-2.543-1.246,4.421,4.421,0,0,1-.8-2.485l3.5.123,10.193.356.026-.776a12.278,12.278,0,0,0-.958-5.759,7.789,7.789,0,0,0-3.256-3.473m-6.005,6.375-3.368-.117a4.742,4.742,0,0,1,.867-2.371,3.1,3.1,0,0,1,2.5-1.207l.153,0a3.106,3.106,0,0,1,2.245.939,4.612,4.612,0,0,1,.967,2.875Z" transform="translate(-167 -53.999)" fill="#fff"/>
    <path id="Path_9" data-name="Path 9" d="M491.7,494.845a7.437,7.437,0,0,1-1.8,1.2,1.252,1.252,0,0,1-1.306-.09,3.464,3.464,0,0,1-.768-1.322l-2.371-5.869,3.487-1.406-1.868-4.623-3.487,1.41-2.542-6.3-5.036,5.82,1.226,3.039-1.478.6-.859.348.859,2.123,1.011,2.5,2.336-.948,2.353,5.823a11.631,11.631,0,0,0,2.157,3.795,3.968,3.968,0,0,0,2.4,1.173,8.253,8.253,0,0,0,3.732-.8,21.831,21.831,0,0,0,3.606-1.9c.191-.127.386-.254.579-.383l-.579-1.086Z" transform="translate(-167 -53.999)" fill="#fff"/>
    <path id="Path_10" data-name="Path 10" d="M545.252,466.467a8.185,8.185,0,0,0,.672-.525,6.979,6.979,0,0,0,2.531-5.3q.067-3.166-2.845-6.523c-.117-.135-.24-.268-.358-.4a11.109,11.109,0,0,0-5.558-3.429,6.922,6.922,0,0,0-1.595-.194,6.557,6.557,0,0,0-4.383,1.756,7,7,0,0,0-1.977,2.77,8.518,8.518,0,0,0-.361,3.3l-1.728-1.993-3.915,3.4-.912.795.912,1.056L538.1,475.4l2.873,3.309,4.28-3.721.93-.807-.93-1.068-4.66-5.359a6.959,6.959,0,0,0,2.807-.321,7.084,7.084,0,0,0,1.853-.963m-4.276-2.984a2.848,2.848,0,0,1-2.369.7,2.628,2.628,0,0,1-.508-.119,5.358,5.358,0,0,1-2.224-1.668,5.09,5.09,0,0,1-1.523-3.08,2.748,2.748,0,0,1,.976-2.207,2.548,2.548,0,0,1,2.214-.572,2.923,2.923,0,0,1,.557.15,5.9,5.9,0,0,1,2.166,1.7,5.311,5.311,0,0,1,1.573,3.043,2.488,2.488,0,0,1-.862,2.059" transform="translate(-167 -53.999)" fill="#fff"/>
    <path id="Path_11" data-name="Path 11" d="M473.493,494.753q-.971-3.393-2.975-4.57a5.856,5.856,0,0,0-4.738-.4,7.662,7.662,0,0,0-3.209,1.719,9.515,9.515,0,0,0-2.074,3.236l-.8-2.789-6.12,1.758,4.915,17.143,6.574-1.885-2.362-8.232a5.478,5.478,0,0,1-.187-3.458,2.49,2.49,0,0,1,1.676-1.46,2.214,2.214,0,0,1,1.871.191,3.562,3.562,0,0,1,1.251,2.109l2.7,9.43,5.744-1.646.858-.249-.858-3Z" transform="translate(-167 -53.999)" fill="#fff"/>
    <path id="Path_12" data-name="Path 12" d="M507.648,486.3a4.313,4.313,0,0,1-.554,1.543,3.839,3.839,0,0,1-1.474,1.319,3.241,3.241,0,0,1-2.83.144,2.864,2.864,0,0,1-.593-.332,5.362,5.362,0,0,1-1.313-1.453l1.313-.666,10.075-5.135.82-.418-.354-.689c-.152-.3-.306-.586-.466-.862a11.244,11.244,0,0,0-3.163-3.714,7.771,7.771,0,0,0-4.528-1.455,8.943,8.943,0,0,0-2.384.316,17.467,17.467,0,0,0-3.533,1.389,10.37,10.37,0,0,0-5.309,5.375c-.039.1-.072.2-.108.3a8.637,8.637,0,0,0,.108,5.912,10.838,10.838,0,0,0,.583,1.326,9.517,9.517,0,0,0,3.509,3.951,8.173,8.173,0,0,0,4.437,1.3c.1,0,.208-.006.313-.012a13.509,13.509,0,0,0,5.112-1.633,13.9,13.9,0,0,0,4.963-3.756l.091-.125a9.653,9.653,0,0,0,1.567-5.129l-1.658.663Zm-8.626-4.2a3.115,3.115,0,0,1,1.74-2.34,3.4,3.4,0,0,1,1.435-.4,2.771,2.771,0,0,1,.979.133,4.588,4.588,0,0,1,2.239,2.045l-3.218,1.638-2.784,1.42a4.759,4.759,0,0,1-.391-2.5" transform="translate(-167 -53.999)" fill="#fff"/>
    <path id="Path_13" data-name="Path 13" d="M553.985,427.153l1.264-1.621-1.264-.986-2.4-1.879-4.212,5.39,3.669,2.866Z" transform="translate(-167 -53.999)" fill="#fff"/>
    <path id="Path_14" data-name="Path 14" d="M555.4,447.448c-.531-.492-1-.965-1.416-1.412a8.27,8.27,0,0,1-2.139-3.35,2.366,2.366,0,0,1,.613-2.275,4.979,4.979,0,0,1,1.526-.992l.146-.065-.146-.336-1.974-4.535a7.192,7.192,0,0,0-2.942,1.779,4.019,4.019,0,0,0-1.132,2.262,7.071,7.071,0,0,0,.6,3.172l-2.132-1.99-1.155,1.246-3.207,3.435,3.207,2.989,8.73,8.142,1.1,1.03,1.159-1.241,3.525-3.781-3.525-3.289Z" transform="translate(-167 -53.999)" fill="#fff"/>
    <path id="Path_15" data-name="Path 15" d="M580.878,415.725a5.211,5.211,0,0,0-1.346-1.215,4.782,4.782,0,0,0-1.631-.654,5.05,5.05,0,0,0-1.21-.082,5.539,5.539,0,0,0-3.014,1.115,19.969,19.969,0,0,0-3.6,3.731,10.987,10.987,0,0,1-2.065,2.156,1.065,1.065,0,0,1-1.2.045,1.158,1.158,0,0,1-.473-.569,1.673,1.673,0,0,1-.093-.408,1.745,1.745,0,0,1,.093-.724,4.394,4.394,0,0,1,.449-.922,3.415,3.415,0,0,1,1.492-1.369,2.2,2.2,0,0,1,1.516-.047l2.89-5.838a7.993,7.993,0,0,0-3.243-.031,6.141,6.141,0,0,0-2.628,1.345c-.151.129-.311.279-.476.451A20.34,20.34,0,0,0,563.912,416a14.977,14.977,0,0,0-2.021,4.421,6.039,6.039,0,0,0,.128,3.4,4.944,4.944,0,0,0,4.326,3.211,4.446,4.446,0,0,0,.642-.016,5.252,5.252,0,0,0,2.755-1.031,30.773,30.773,0,0,0,3.6-3.584,14.23,14.23,0,0,1,2.156-2.119,1.248,1.248,0,0,1,1.373-.049,1.32,1.32,0,0,1,.616,1.074,3.4,3.4,0,0,1-.63,2.123,3.5,3.5,0,0,1-1.512,1.43,3.306,3.306,0,0,1-2.091.082l-3.051,6.1a6.289,6.289,0,0,0,4.77-.163,8.688,8.688,0,0,0,2.929-2.443,24.236,24.236,0,0,0,1.941-2.719q.6-.957,1.036-1.83A11.163,11.163,0,0,0,582,420.616a5.943,5.943,0,0,0-1.126-4.891" transform="translate(-167 -53.999)" fill="#fff"/>
    <path id="Path_16" data-name="Path 16" d="M556.931,426.846l-.685.877-2.26,2.891-1.265,1.621,1.265.988,2.26,1.766,10.1,7.892.428.332,4.21-5.387-4.638-3.626Z" transform="translate(-167 -53.999)" fill="#fff"/>
    <path id="Path_17" data-name="Path 17" d="M523.14,475.839q-2.519-3.466-2.579-5.352a2.375,2.375,0,0,1,1.034-2.119,5.319,5.319,0,0,1,1.842-.717l-1.151-5.187a7.215,7.215,0,0,0-3.227,1.186,3.993,3.993,0,0,0-1.541,2.005,7,7,0,0,0-.011,3.233l-1.715-2.361-3.517,2.554-1.658,1.205,1.658,2.282,8.824,12.144,4.636-3.369.918-.668-.918-1.26Z" transform="translate(-167 -53.999)" fill="#fff"/>
    <path id="Path_18" data-name="Path 18" d="M591.433,393.272l-3.3,5.9a4.46,4.46,0,0,1,.542,1.549,3.886,3.886,0,0,1-.317,1.951,3.228,3.228,0,0,1-2.11,1.89,4.377,4.377,0,0,1-2.6-.187l5.57-12.512-.705-.316a12.267,12.267,0,0,0-5.7-1.27A7.8,7.8,0,0,0,578.366,392c-.158.123-.311.256-.465.4a14.151,14.151,0,0,0-3.055,4.645,10.2,10.2,0,0,0-.643,7.812,8.577,8.577,0,0,0,3.7,4.463,11.36,11.36,0,0,0,1.392.735,11.077,11.077,0,0,0,1.585.576,8.949,8.949,0,0,0,3.629.283,8.15,8.15,0,0,0,4.27-1.781,12.844,12.844,0,0,0,3.178-4.69,13.6,13.6,0,0,0,1.488-6.195,9.664,9.664,0,0,0-2.01-4.975m-10.555,9.268-.22.49a4.709,4.709,0,0,1-1.877-1.693,3.35,3.35,0,0,1,1.59-4.639,2.5,2.5,0,0,1,.507-.135,5.416,5.416,0,0,1,2.519.315Z" transform="translate(-167 -53.999)" fill="#fff"/>
    <path id="Path_19" data-name="Path 19" d="M438.973,508.612l-.673-4.8,11.72-1.646-.7-4.975L437.6,498.837l-.542-3.877,12.635-1.776-.733-5.2-20.183,2.836,3.427,24.379,20.553-2.885-.776-5.527Z" transform="translate(-167 -53.999)" fill="#fff"/>
    <path id="Path_20" data-name="Path 20" d="M418.553,63.4A242.794,242.794,0,0,1,590.234,477.876,242.793,242.793,0,0,1,246.873,134.515,241.2,241.2,0,0,1,418.553,63.4m0-7.816c-138.406,0-250.607,112.2-250.607,250.607S280.147,556.8,418.553,556.8,669.16,444.6,669.16,306.194,556.962,55.587,418.553,55.587" transform="translate(-167 -53.999)" fill="#fff"/>
    <rect id="Rectangle_2" data-name="Rectangle 2" width="841.89" height="595.281" transform="translate(-167 -54)" fill="none"/>
    <text id="M" transform="translate(79.411 192.311) rotate(-62.4)" fill="#fff" font-size="56.27" font-family="Arial-Black, Arial Black" font-weight="800"><tspan x="0" y="0">M</tspan></text>
    <text id="o" transform="matrix(0.655, -0.756, 0.756, 0.655, 103.067, 148.393)" fill="#fff" font-size="56.271" font-family="Arial-Black, Arial Black" font-weight="800"><tspan x="0" y="0">o</tspan></text>
    <text id="s" transform="matrix(0.781, -0.624, 0.624, 0.781, 125.735, 122.113)" fill="#fff" font-size="56.271" font-family="Arial-Black, Arial Black" font-weight="800"><tspan x="0" y="0">s</tspan></text>
    <text id="t" transform="translate(150.757 102.326) rotate(-30.028)" fill="#fff" font-size="56.271" font-family="Arial-Black, Arial Black" font-weight="800"><tspan x="0" y="0">t</tspan></text>
    <text id="_" data-name=" " transform="matrix(0.915, -0.403, 0.403, 0.915, 170.497, 90.968)" fill="#fff" font-size="56.271" font-family="Arial-Black, Arial Black" font-weight="800"><tspan x="0" y="0"> </tspan></text>
    <text id="I" transform="translate(185.683 83.994) rotate(-17.941)" fill="#fff" font-size="56.271" font-family="Arial-Black, Arial Black" font-weight="800"><tspan x="0" y="0">I</tspan></text>
    <text id="n" transform="translate(203.952 77.334) rotate(-9.242)" fill="#fff" font-size="56.271" font-family="Arial-Black, Arial Black" font-weight="800"><tspan x="0" y="0">n</tspan></text>
    <text id="n-2" data-name="n" transform="matrix(0.999, 0.033, -0.033, 0.999, 238.083, 71.428)" fill="#fff" font-size="56.271" font-family="Arial-Black, Arial Black" font-weight="800"><tspan x="0" y="0">n</tspan></text>
    <text id="o-2" data-name="o" transform="translate(272.806 72.25) rotate(12.735)" fill="#fff" font-size="56.271" font-family="Arial-Black, Arial Black" font-weight="800"><tspan x="0" y="0">o</tspan></text>
    <text id="v" transform="translate(305.031 79.19) rotate(22.762)" fill="#fff" font-size="56.271" font-family="Arial-Black, Arial Black" font-weight="800"><tspan x="0" y="0">v</tspan></text>
    <text id="a" transform="matrix(0.836, 0.549, -0.549, 0.836, 334.381, 91.066)" fill="#fff" font-size="56.271" font-family="Arial-Black, Arial Black" font-weight="800"><tspan x="0" y="0">a</tspan></text>
    <text id="t-2" data-name="t" transform="matrix(0.743, 0.669, -0.669, 0.743, 362.671, 110.019)" fill="#fff" font-size="56.271" font-family="Arial-Black, Arial Black" font-weight="800"><tspan x="0" y="0">t</tspan></text>
    <text id="i-2" data-name="i" transform="translate(379.634 125.202) rotate(48.146)" fill="#fff" font-size="56.271" font-family="Arial-Black, Arial Black" font-weight="800"><tspan x="0" y="0">i</tspan></text>
    <text id="v-2" data-name="v" transform="translate(391.051 137.093) rotate(55.748)" fill="#fff" font-size="56.271" font-family="Arial-Black, Arial Black" font-weight="800"><tspan x="0" y="0">v</tspan></text>
    <text id="e" transform="matrix(0.41, 0.912, -0.912, 0.41, 408.496, 161.806)" fill="#fff" font-size="56.271" font-family="Arial-Black, Arial Black" font-weight="800"><tspan x="0" y="0">e</tspan></text>
    <path id="Path_21" data-name="Path 21" d="M255.51,320.464l-24.874-23.643H220.3v57.54h10.473c0-15.071.436-30.163.436-45.213l22.716,22.83,2.389-.094,23.109-23.145v45.622h10.078v-57.54h-9.3Z" transform="translate(-167 -53.999)" fill="#fff"/>
    <path id="Path_22" data-name="Path 22" d="M503.946,296.677H491.165L459.85,323.038V296.677H449.332v57.54H459.85V326.471l38.36,28.178,13.671-.111-39.508-30.254Z" transform="translate(-167 -53.999)" fill="#fff"/>
    <path id="Path_23" data-name="Path 23" d="M582.731,346.905V328.884h30.232v-6.922H582.731V302.889h31.5v-6.6H571.966v57.537h42.983v-6.922Z" transform="translate(-167 -53.999)" fill="#fff"/>
    <path id="Path_24" data-name="Path 24" d="M362.717,296.821V354.36H372.8V296.821Z" transform="translate(-167 -53.999)" fill="#fff"/>
    <path id="Path_25" data-name="Path 25" d="M501.456,204.475a30.154,30.154,0,0,0-46.849-22.887,45.48,45.48,0,0,0-86.992,18.5,45.06,45.06,0,0,0,.225,4.585,33.686,33.686,0,1,0,3.754,67.268,2.019,2.019,0,0,0,1.442-3.3l-.031-.038a2.054,2.054,0,0,0-1.7-.731c-.548.034-1.1.051-1.658.051a29.615,29.615,0,0,1-1.227-59.2c.407-.018.818-.024,1.227-.024q1.5,0,2.956.144a29.662,29.662,0,0,1,26.6,27.6,2.016,2.016,0,0,0,2.021,1.869,2.054,2.054,0,0,0,2.039-2.207,33.733,33.733,0,0,0-31.327-31.4q-.219-1.936-.248-3.921a41.407,41.407,0,0,1,79.594-16.621,30.22,30.22,0,0,0-5.263,6.157,2.034,2.034,0,1,0,3.41,2.218,26.086,26.086,0,1,1,32.857,37.793,26.282,26.282,0,0,0-2.3-1.467,1.872,1.872,0,0,0-2.509.609,1.85,1.85,0,0,0,.686,2.609,20.013,20.013,0,0,1,2.6,1.687,20.744,20.744,0,1,1-33.316,17.086,1.175,1.175,0,0,0-1.128-1.163l-1.377-.037a1.167,1.167,0,0,0-1.2,1.171,24.457,24.457,0,1,0,41.936-17.646,30.137,30.137,0,0,0,15.787-28.708" transform="translate(-167 -53.999)" fill="#fff"/>
    <path id="Path_26" data-name="Path 26" d="M472.162,199.1c-8.037,13.229-24.538,20.46-33.66,23.6a4.248,4.248,0,0,0-1.87.62c-2.8.9-4.552,1.307-4.552,1.307.747-14.047-10.686-28.4-17.323-35.489a.516.516,0,0,0-.792.657A78.119,78.119,0,0,1,423.3,207.1a31.424,31.424,0,0,1-15.608-5.188.324.324,0,0,0-.416.492c2.3,2.284,7.443,6.161,17.189,8.315a37.049,37.049,0,0,1-.458,20.139c-2.347,7.264-13.854,37.094-20.782,36.339a26.124,26.124,0,0,1-11.851-1.729c.128-13.326-4.825-22.116-8.062-26.43a.373.373,0,0,0-.614.422c5.069,9.34,4.85,16.426,5.177,24.4-7.236-4.236-10.815-11.313-12.225-14.841a.405.405,0,0,0-.777.174c.287,10.751,6.917,17.345,17.5,23.1,6.21,3.37,9.6,6.662,11.6,11.435,1.719,3.868-1.378,8.046-2.476,9.349a.25.25,0,0,0,.2.409h28.756a.317.317,0,0,0,.208-.549c-6.381-6.045-7.513-8.3-9.168-14.34-2.172-6.184-.773-16.7,11.075-46.6,1.049-2.644,4.209-4.029,7.718-5.141a94.862,94.862,0,0,1,15.195,5.928.7.7,0,0,0,.75-1.165,72.185,72.185,0,0,0-10.118-6.528,20.612,20.612,0,0,0,3.372-1.393c14.8-8.071,21.032-17.93,23.617-24.136a.522.522,0,0,0-.936-.458" transform="translate(-167 -53.999)" fill="#fff"/>
    <rect id="Rectangle_3" data-name="Rectangle 3" width="841.89" height="595.281" transform="translate(-167 -54)" fill="none"/>
    <g id="Group_5" data-name="Group 5" transform="translate(-167 -53.999)" clip-path="url(#clip-path)">
      <path id="Path_27" data-name="Path 27" d="M384.789,410.052v-2.625l2.7-2.485c5.356-4.971,7.876-7.7,7.911-10.711,0-2.031-1.085-3.816-4.061-3.816a8.284,8.284,0,0,0-4.865,1.89l-1.26-3.045a11.259,11.259,0,0,1,7-2.346c5.041,0,7.491,3.186,7.491,6.9,0,3.991-2.87,7.211-6.826,10.887l-1.995,1.714v.071h9.347v3.57Z" fill="#fff"/>
      <path id="Path_28" data-name="Path 28" d="M419.615,398.535c0,7.316-2.87,11.9-8.3,11.9-5.25,0-8.051-4.759-8.086-11.691,0-7.07,3.01-11.831,8.331-11.831,5.5,0,8.051,4.9,8.051,11.621m-12.041.21c-.035,5.531,1.505,8.4,3.885,8.4,2.52,0,3.851-3.08,3.851-8.541,0-5.285-1.26-8.4-3.851-8.4-2.31,0-3.92,2.835-3.885,8.54" fill="#fff"/>
      <path id="Path_29" data-name="Path 29" d="M422.308,410.052v-2.625L425,404.942c5.356-4.971,7.876-7.7,7.911-10.711,0-2.031-1.085-3.816-4.06-3.816a8.281,8.281,0,0,0-4.865,1.89l-1.261-3.045a11.262,11.262,0,0,1,7-2.346c5.041,0,7.491,3.186,7.491,6.9,0,3.991-2.87,7.211-6.826,10.887l-2,1.714v.071h9.346v3.57Z" fill="#fff"/>
      <path id="Path_30" data-name="Path 30" d="M441.942,405.606a11.258,11.258,0,0,0,5.181,1.4c3.291,0,4.621-1.855,4.586-3.64,0-2.7-2.521-3.851-5.146-3.851h-1.995v-3.15h1.925c1.995,0,4.515-.91,4.515-3.186,0-1.54-1.155-2.835-3.64-2.835a9.143,9.143,0,0,0-4.655,1.436l-.981-3.116a12.289,12.289,0,0,1,6.546-1.75c4.69,0,7.1,2.59,7.1,5.565,0,2.381-1.4,4.341-4.2,5.321v.07a5.745,5.745,0,0,1,5.006,5.671c0,3.85-3.221,6.9-8.856,6.9a12.4,12.4,0,0,1-6.37-1.575Z" fill="#fff"/>
      <rect id="Rectangle_4" data-name="Rectangle 4" width="4.305" height="23.593" transform="translate(348.809 428.458)" fill="#fff"/>
      <path id="Path_31" data-name="Path 31" d="M358.083,440.08c0-1.96-.035-3.6-.14-5.075h3.781l.211,2.555h.1a6.147,6.147,0,0,1,5.426-2.94c2.974,0,6.056,1.925,6.056,7.315v10.117h-4.306v-9.626c0-2.45-.91-4.306-3.255-4.306a3.616,3.616,0,0,0-3.361,2.521,4.355,4.355,0,0,0-.175,1.4v10.011h-4.341Z" fill="#fff"/>
      <path id="Path_32" data-name="Path 32" d="M393.82,427.2v20.057c0,1.75.07,3.64.14,4.795h-3.85l-.175-2.7h-.07a6.135,6.135,0,0,1-5.566,3.08c-4.06,0-7.281-3.465-7.281-8.716-.035-5.7,3.536-9.1,7.631-9.1a5.43,5.43,0,0,1,4.8,2.24h.07V427.2Zm-4.3,14.911a6.065,6.065,0,0,0-.105-1.12,3.771,3.771,0,0,0-3.71-3.045c-2.766,0-4.306,2.45-4.306,5.636,0,3.115,1.54,5.39,4.27,5.39a3.8,3.8,0,0,0,3.711-3.046,4.782,4.782,0,0,0,.14-1.259Z" fill="#fff"/>
      <path id="Path_33" data-name="Path 33" d="M414.645,443.371c0,6.266-4.411,9.066-8.751,9.066-4.831,0-8.541-3.326-8.541-8.786,0-5.6,3.675-9.031,8.82-9.031,5.076,0,8.472,3.571,8.472,8.751m-12.847.175c0,3.29,1.61,5.775,4.236,5.775,2.45,0,4.165-2.415,4.165-5.845,0-2.66-1.19-5.705-4.13-5.705-3.046,0-4.271,2.94-4.271,5.775" fill="#fff"/>
      <path id="Path_34" data-name="Path 34" d="M418.178,440.08c0-1.96-.035-3.6-.14-5.075h3.781l.21,2.555h.1a6.147,6.147,0,0,1,5.426-2.94c2.975,0,6.056,1.925,6.056,7.315v10.117h-4.306v-9.626c0-2.45-.91-4.306-3.255-4.306a3.613,3.613,0,0,0-3.36,2.521,4.355,4.355,0,0,0-.175,1.4v10.011h-4.341Z" fill="#fff"/>
      <path id="Path_35" data-name="Path 35" d="M441.243,444.736c.1,3.08,2.52,4.41,5.251,4.41a12.791,12.791,0,0,0,4.725-.771l.63,2.976a15.99,15.99,0,0,1-5.951,1.085c-5.53,0-8.785-3.43-8.785-8.646,0-4.725,2.87-9.17,8.33-9.17,5.566,0,7.352,4.55,7.352,8.3a10.594,10.594,0,0,1-.141,1.821Zm7.491-3.011c.035-1.575-.665-4.165-3.536-4.165-2.66,0-3.78,2.415-3.955,4.165Z" fill="#fff"/>
      <path id="Path_36" data-name="Path 36" d="M456.048,448.1a9.6,9.6,0,0,0,4.375,1.225c1.891,0,2.73-.77,2.73-1.89,0-1.155-.7-1.751-2.8-2.485-3.326-1.156-4.726-2.976-4.691-4.971,0-3.011,2.486-5.356,6.442-5.356a10.017,10.017,0,0,1,4.514,1.015l-.84,3.046a7.651,7.651,0,0,0-3.605-.98c-1.54,0-2.38.735-2.38,1.785,0,1.085.8,1.61,2.976,2.38,3.08,1.12,4.514,2.7,4.55,5.215,0,3.08-2.416,5.356-6.931,5.356a10.985,10.985,0,0,1-5.181-1.225Z" fill="#fff"/>
      <path id="Path_37" data-name="Path 37" d="M475.437,430.244a2.416,2.416,0,1,1-2.415-2.345,2.281,2.281,0,0,1,2.415,2.345m-4.584,4.761h4.34v17.047h-4.34Z" fill="#fff"/>
      <path id="Path_38" data-name="Path 38" d="M493.044,447.955a27.349,27.349,0,0,0,.245,4.1H489.4l-.281-1.891h-.1a6.332,6.332,0,0,1-5.041,2.276,5.06,5.06,0,0,1-5.356-5.075c0-4.306,3.816-6.476,10.117-6.441v-.28c0-1.12-.456-2.976-3.466-2.976a9.028,9.028,0,0,0-4.585,1.261l-.84-2.8a12.283,12.283,0,0,1,6.16-1.505c5.461,0,7.036,3.465,7.036,7.176Zm-4.2-4.235c-3.045-.069-5.95.6-5.95,3.186a2.26,2.26,0,0,0,2.45,2.45,3.486,3.486,0,0,0,3.36-2.346,3.059,3.059,0,0,0,.14-.944Z" fill="#fff"/>
    </g>
  </g>
</svg>
